<?xml version="1.0" standalone="no"?>
<!DOCTYPE svg PUBLIC "-//W3C//DTD SVG 20010904//EN"
 "http://www.w3.org/TR/2001/REC-SVG-20010904/DTD/svg10.dtd">
<svg version="1.0" xmlns="http://www.w3.org/2000/svg"
 width="952.000000pt" height="952.000000pt" viewBox="0 0 952.000000 952.000000"
 preserveAspectRatio="xMidYMid meet">
<metadata>
Created by potrace 1.14, written by Peter Selinger 2001-2017
</metadata>
<g transform="translate(0.000000,952.000000) scale(0.100000,-0.100000)"
fill="#000000" stroke="none">
<path d="M0 4755 l0 -3795 4755 0 4755 0 0 3795 0 3795 -4755 0 -4755 0 0
-3795z m5211 2072 c54 -36 58 -59 58 -392 1 -279 2 -302 21 -332 10 -18 34
-40 51 -49 31 -15 33 -15 45 1 7 10 18 42 24 71 12 58 41 107 81 136 14 11 89
37 165 58 76 21 148 41 159 45 43 14 -42 -46 -138 -97 -118 -63 -160 -106
-182 -185 -26 -94 -35 -110 -80 -152 -57 -52 -106 -62 -287 -55 -129 5 -146 4
-178 -14 -48 -27 -85 -104 -111 -231 -36 -185 -82 -237 -245 -277 -146 -35
-211 -87 -324 -259 -58 -88 -152 -191 -217 -236 -23 -16 -44 -29 -48 -29 -3 0
23 33 58 73 65 74 131 167 161 224 l16 32 -283 3 c-392 4 -377 -7 -377 295 0
103 3 239 7 300 l6 113 78 79 78 78 273 5 c395 7 371 -17 378 374 l5 271 39
44 c22 24 58 61 81 81 49 43 43 43 426 46 221 2 227 1 260 -21z m844 -374
c-20 -59 -69 -173 -108 -253 -40 -80 -73 -148 -75 -152 -2 -5 25 -8 60 -8 68
0 105 -17 136 -61 15 -21 17 -64 20 -369 4 -487 37 -450 -413 -450 -293 0
-312 -1 -343 -20 -59 -36 -62 -55 -62 -396 0 -338 -1 -342 -64 -380 -28 -17
-58 -19 -353 -22 -200 -2 -337 1 -361 7 -21 6 -51 25 -67 41 l-30 31 -3 175
c-3 160 -5 175 -20 169 -75 -29 -240 -88 -294 -105 -146 -45 -436 -91 -563
-89 -58 1 -56 2 85 36 620 149 1144 430 1631 875 307 281 626 686 808 1028 58
108 64 85 16 -57z m-783 -2482 c30 -27 31 -30 19 -59 -20 -47 -37 -58 -60 -38
-28 26 -62 16 -85 -24 -18 -30 -21 -52 -21 -145 0 -156 27 -203 101 -176 37
13 38 13 61 -15 29 -37 29 -48 -3 -73 -64 -50 -162 -50 -219 0 -56 50 -70 102
-70 269 0 137 2 149 26 195 36 71 76 95 155 95 56 0 68 -4 96 -29z m-2488 2
c2 -10 17 -75 32 -146 15 -70 29 -125 31 -123 4 4 25 96 53 229 l11 57 69 0
68 0 6 -57 c3 -32 13 -159 22 -282 17 -248 19 -241 -46 -241 -73 0 -80 6 -81
69 -1 93 -14 104 -28 22 -14 -77 -26 -91 -80 -91 -42 0 -55 17 -71 96 l-14 69
-7 -40 c-4 -22 -8 -56 -8 -76 -1 -24 -7 -39 -17 -43 -22 -9 -97 -7 -111 2 -10
6 -8 63 7 267 11 143 20 270 20 283 0 21 4 22 69 22 58 0 70 -3 75 -17z m844
-25 l-3 -43 -63 -3 -63 -3 3 -72 3 -72 48 -3 48 -3 -3 -42 -3 -42 -47 -3 -48
-3 0 -74 0 -74 63 -3 62 -3 3 -39 c2 -24 -2 -42 -10 -47 -15 -10 -208 -12
-232 -3 -14 5 -16 40 -16 290 l0 284 131 0 130 0 -3 -42z m563 19 c19 -12 45
-44 59 -72 22 -43 25 -66 28 -167 5 -171 -24 -255 -101 -295 -34 -17 -196 -30
-241 -19 l-26 6 0 285 0 285 124 0 c111 0 126 -2 157 -23z m509 -261 c0 -313
4 -296 -65 -296 -69 0 -65 -17 -65 296 l0 284 65 0 65 0 0 -284z m1020 0 c0
-313 4 -296 -65 -296 -69 0 -65 -17 -65 296 l0 284 65 0 65 0 0 -284z m570
239 l0 -45 -40 0 -40 0 0 -239 c0 -265 4 -251 -68 -251 -20 0 -43 4 -49 8 -9
6 -13 70 -15 242 l-3 235 -42 3 -43 3 0 45 0 44 150 0 150 0 0 -45z m409 3
c30 -100 31 -100 55 -28 l23 65 66 3 c37 2 67 -1 67 -5 0 -5 -25 -73 -55 -152
l-55 -144 0 -132 c0 -147 1 -145 -66 -145 -71 0 -74 5 -74 150 l0 130 -55 146
c-30 81 -55 148 -55 150 0 2 31 4 68 4 l69 0 12 -42z m-5265 -944 c23 -22 23
-210 0 -242 -18 -27 -69 -30 -96 -5 -15 14 -18 32 -18 120 0 57 5 113 10 124
13 24 81 26 104 3z m3632 -9 c13 -19 15 -45 12 -126 -2 -86 -6 -103 -22 -115
-23 -17 -60 -18 -87 -4 -17 10 -19 22 -19 128 0 79 4 122 12 130 7 7 29 12 50
12 29 0 41 -6 54 -25z m2293 11 c8 -9 11 -53 9 -132 l-3 -119 -27 -9 c-18 -6
-38 -6 -55 0 l-28 9 -3 119 c-2 79 1 123 9 132 6 8 28 14 49 14 21 0 43 -6 49
-14z m-6353 -47 c11 -28 24 -50 29 -49 6 1 18 24 28 51 10 27 23 49 28 49 13
0 12 -9 -13 -70 -12 -30 -24 -84 -27 -119 -8 -84 -31 -97 -31 -17 0 37 -10 80
-29 130 -21 54 -25 76 -16 76 7 0 21 -23 31 -51z m706 -65 c3 -99 6 -119 21
-128 12 -8 22 -8 35 0 14 9 17 29 20 128 4 155 22 153 22 -3 0 -95 -3 -123
-16 -135 -18 -18 -56 -21 -85 -6 -17 10 -19 22 -19 135 0 160 18 167 22 9z
m448 97 c16 -31 12 -107 -7 -126 -14 -15 -15 -21 -4 -49 21 -51 24 -66 14 -66
-5 0 -20 23 -33 50 -31 66 -50 66 -50 -1 0 -36 -4 -49 -12 -47 -9 3 -14 41
-16 131 l-3 127 50 0 c39 0 53 -4 61 -19z m510 -35 c0 -58 6 -65 52 -58 27 4
28 7 28 58 0 42 3 54 15 54 13 0 15 -18 13 -127 -2 -90 -7 -128 -15 -131 -10
-3 -13 14 -13 63 l0 66 -37 -3 -38 -3 -3 -62 c-2 -35 -7 -63 -12 -63 -6 0 -10
54 -10 130 0 80 4 130 10 130 6 0 10 -24 10 -54z m423 47 l-43 -4 0 -55 c0
-51 2 -54 24 -54 14 0 28 -4 31 -10 4 -6 -7 -10 -24 -10 -30 0 -31 -1 -31 -50
l0 -50 40 0 c22 0 40 -4 40 -10 0 -5 -25 -10 -55 -10 l-55 0 0 130 0 130 58
-2 c49 -1 51 -2 15 -5z m364 -108 c12 -60 22 -118 23 -127 0 -30 -17 -20 -26
15 -9 28 -14 32 -44 32 -31 0 -35 -4 -40 -29 -3 -16 -11 -31 -17 -34 -16 -5
-17 -16 12 128 14 68 25 125 25 127 0 2 10 3 22 1 20 -3 25 -15 45 -113z m283
-5 l0 -120 30 0 c17 0 30 -4 30 -10 0 -5 -20 -10 -45 -10 l-45 0 0 130 c0 109
2 130 15 130 13 0 15 -20 15 -120z m330 111 c-25 -7 -25 -8 -28 -129 -1 -67
-7 -122 -12 -122 -5 0 -11 55 -12 122 -3 121 -3 122 -28 129 -16 5 -2 7 40 7
42 0 56 -2 40 -7z m270 -46 l0 -55 40 0 40 0 0 55 c0 30 5 55 10 55 6 0 10
-50 10 -130 0 -76 -4 -130 -10 -130 -5 0 -10 28 -12 63 l-3 62 -37 3 -38 3 0
-65 c0 -52 -3 -66 -15 -66 -13 0 -15 21 -15 130 0 109 2 130 15 130 12 0 15
-13 15 -55z m1000 -59 c0 -121 9 -144 48 -131 26 8 32 32 32 148 0 58 4 97 10
97 6 0 10 -46 10 -119 0 -138 -8 -154 -69 -149 -51 4 -61 30 -61 161 0 88 3
107 15 107 12 0 15 -19 15 -114z m444 98 c21 -21 20 -88 -1 -125 -16 -27 -16
-31 0 -64 34 -71 11 -76 -25 -5 -32 61 -46 62 -50 4 -2 -27 -8 -49 -15 -52
-10 -3 -13 27 -13 127 l0 131 44 0 c27 0 51 -6 60 -16z m596 -3 c16 -30 12
-107 -6 -125 -8 -9 -29 -16 -45 -16 -28 0 -29 -1 -29 -51 0 -36 -4 -49 -12
-47 -9 3 -14 41 -16 131 l-3 127 50 0 c39 0 53 -4 61 -19z m341 2 c20 -23 17
-108 -5 -132 -17 -18 -16 -21 3 -60 24 -46 25 -51 11 -51 -5 0 -21 23 -35 51
-14 28 -31 49 -38 46 -7 -2 -13 -25 -15 -50 -2 -26 -7 -47 -13 -47 -5 0 -9 55
-9 130 l0 130 44 0 c28 0 48 -6 57 -17z m284 -113 c0 -128 0 -130 -22 -130
-24 0 -31 14 -13 25 15 9 13 208 -2 223 -9 9 -7 12 13 12 l24 0 0 -130z m715
111 c16 -31 12 -107 -7 -126 -14 -15 -15 -21 -4 -49 21 -51 24 -66 14 -66 -5
0 -20 23 -33 50 -31 66 -50 66 -50 -1 0 -36 -4 -49 -12 -47 -9 3 -14 41 -16
131 l-3 127 50 0 c39 0 53 -4 61 -19z m282 7 c-8 -8 -12 -49 -12 -118 0 -69 4
-110 12 -118 9 -9 4 -12 -22 -12 -26 0 -31 3 -22 12 8 8 12 49 12 118 0 69 -4
110 -12 118 -9 9 -4 12 22 12 26 0 31 -3 22 -12z m318 3 c-25 -7 -25 -8 -28
-129 -1 -67 -7 -122 -12 -122 -5 0 -11 55 -12 122 -3 121 -3 122 -28 129 -16
5 -2 7 40 7 42 0 56 -2 40 -7z m262 -49 c11 -29 23 -50 28 -47 4 3 16 27 26
55 10 27 24 50 31 50 8 0 4 -21 -14 -67 -16 -39 -29 -95 -31 -131 -5 -83 -25
-77 -33 9 -3 35 -15 89 -27 119 -25 62 -27 73 -11 68 6 -2 20 -27 31 -56z
m-3869 -179 c3 -5 -1 -21 -8 -38 -7 -16 -14 -23 -14 -15 -1 8 -4 25 -7 38 -5
16 -2 22 9 22 9 0 18 -3 20 -7z"/>
<path d="M4050 3705 l0 -195 23 0 c13 0 31 8 40 18 33 37 48 199 26 292 -12
54 -34 80 -66 80 l-23 0 0 -195z"/>
<path d="M1357 2994 c-4 -4 -7 -56 -7 -115 0 -114 6 -128 52 -113 17 5 18 15
16 117 -3 112 -3 112 -28 115 -14 2 -29 0 -33 -4z"/>
<path d="M4981 2981 c-14 -25 -14 -176 -1 -202 6 -10 19 -19 29 -19 35 0 42
23 39 131 l-3 104 -27 3 c-18 2 -30 -3 -37 -17z"/>
<path d="M7275 2978 c-3 -13 -5 -63 -3 -112 2 -72 6 -91 21 -100 12 -8 22 -8
35 0 14 9 18 28 20 100 4 118 -1 134 -38 134 -22 0 -31 -5 -35 -22z"/>
<path d="M2080 2935 c0 -62 1 -65 25 -65 32 0 49 32 41 78 -6 37 -19 52 -48
52 -15 0 -18 -10 -18 -65z"/>
<path d="M3406 2950 c-3 -8 -10 -36 -15 -62 l-8 -48 29 0 c29 0 30 0 23 43
-11 61 -21 86 -29 67z"/>
<path d="M5710 2934 l0 -65 28 3 c25 3 27 7 30 51 3 52 -9 77 -39 77 -17 0
-19 -8 -19 -66z"/>
<path d="M6300 2935 c0 -62 1 -65 25 -65 32 0 49 32 41 78 -6 37 -19 52 -48
52 -15 0 -18 -10 -18 -65z"/>
<path d="M6644 2986 c-3 -7 -4 -35 -2 -62 3 -47 4 -49 33 -49 29 0 30 2 33 48
2 27 -2 55 -9 63 -15 18 -48 18 -55 0z"/>
<path d="M7640 2935 c0 -63 1 -65 25 -65 19 0 28 8 36 27 13 35 3 89 -17 97
-39 15 -44 8 -44 -59z"/>
</g>
</svg>
